# xmcd
#
# Track frame offsets:
#	150
#	13830
#	29235
#	46567
#	58645
#	71050
#	82095
#	92537
#	104615
#	113630
#	134040
#
# Disc length: 1904 seconds
#
# Revision: 0
# Processed by: cddbd v1.4PL0 Copyright (c) Steve Scherf et al.
# Submitted via: dBpowerAMP V4.0
#
DISCID=9a076e0b
DTITLE=Los Cachorros de Juan Villarreal - La Muerte de Baltazar
DYEAR=1900
DGENRE=Latin
TTITLE0=La muerte de Baltazar
TTITLE1=Las maletas
TTITLE2=El trono
TTITLE3=Cruel padecer
TTITLE4=El mastuerzo
TTITLE5=El tio
TTITLE6=Yá tengo que verte
TTITLE7=La escena
TTITLE8=Volvio la calandria
TTITLE9=La chabela
TTITLE10=Otra que se me va
EXTD=
EXTT0=
EXTT1=
EXTT2=
EXTT3=
EXTT4=
EXTT5=
EXTT6=
EXTT7=
EXTT8=
EXTT9=
EXTT10=
PLAYORDER=
